<?xml version="1.0" encoding="UTF-8" standalone="no"?>
<svg
   xmlns:dc="http://purl.org/dc/elements/1.1/"
   xmlns:cc="http://creativecommons.org/ns#"
   xmlns:rdf="http://www.w3.org/1999/02/22-rdf-syntax-ns#"
   xmlns:svg="http://www.w3.org/2000/svg"
   xmlns="http://www.w3.org/2000/svg"
   xmlns:sodipodi="http://sodipodi.sourceforge.net/DTD/sodipodi-0.dtd"
   xmlns:inkscape="http://www.inkscape.org/namespaces/inkscape"
   width="362.442"
   height="424.535"
   viewBox="0 0 95.896 112.325"
   version="1.1"
   id="svg250"
   sodipodi:docname="Seal of Pacitan Regency (1).svg"
   inkscape:version="1.0.1 (3bc2e813f5, 2020-09-07)">
  <metadata
     id="metadata254">
    <rdf:RDF>
      <cc:Work
         rdf:about="">
        <dc:format>image/svg+xml</dc:format>
        <dc:type
           rdf:resource="http://purl.org/dc/dcmitype/StillImage" />
      </cc:Work>
    </rdf:RDF>
  </metadata>
  <sodipodi:namedview
     pagecolor="#ffffff"
     bordercolor="#666666"
     borderopacity="1"
     objecttolerance="10"
     gridtolerance="10"
     guidetolerance="10"
     inkscape:pageopacity="0"
     inkscape:pageshadow="2"
     inkscape:window-width="1366"
     inkscape:window-height="705"
     id="namedview252"
     showgrid="false"
     inkscape:zoom="0.50875718"
     inkscape:cx="417.31871"
     inkscape:cy="185.08357"
     inkscape:window-x="-8"
     inkscape:window-y="-8"
     inkscape:window-maximized="1"
     inkscape:current-layer="svg250" />
  <style
     id="style2"><![CDATA[.f{stroke-width:.265}.g{fill:none}.h{stroke:#000}.i{opacity:.999}.j{opacity:.998}.k{fill:#fff}.l{fill:#ff0}.m{fill:#11009a}.n{fill:#d8d8d8}.o{stroke:#6f6f6f}.p{stroke:#070042}.q{fill-rule:evenodd}.r{stroke-width:.132}.s{stroke-linecap:round}.t{stroke-width:.661}.u{stroke-linejoin:round}.v{fill:#a9a9a9}.w{stroke-width:.794}]]></style>
  <path
     id="use4"
     d="M 47.948,0.682 C 37.159,0.682 25.626,8.58 18.041,1.58 14.581,9.797 9.501,16.842 0.89,21.329 3.228,26.45 3.866,32.138 3.536,38.149 v 20.033 c 0.356,24.729 11.899,39.639 20.769,43.559 9.292,4.107 17.506,2.519 23.643,9.546 6.137,-7.027 14.351,-5.439 23.643,-9.546 8.87,-3.921 20.414,-18.83 20.769,-43.559 V 38.149 C 92.029,32.138 92.668,26.45 95.006,21.329 86.395,16.842 81.316,9.797 77.855,1.58 70.27,8.58 58.737,0.682 47.948,0.682 Z"
     style="fill:#ff0000;" />
  <path
     d="m 47.948,5.304 c -4.267,0 -9.576,1.78 -15.195,2.973 C 28.812,9.114 24.239,9.446 20.024,7.951 16.89,13.849 12.51,19.124 6.469,23.158 8.013,28.08 8.433,33.234 8.149,38.404 L 8.157,38.15 v 19.967 c 0.335,23.318 11.751,36.63 18.016,39.398 3.984,1.761 7.948,2.345 12.258,3.422 3.091,0.772 6.442,1.969 9.518,4.189 3.076,-2.22 6.427,-3.417 9.518,-4.189 4.31,-1.077 8.274,-1.661 12.258,-3.422 6.264,-2.769 17.68,-16.08 18.016,-39.398 V 38.15 l 0.008,0.254 C 87.465,33.234 87.885,28.08 89.429,23.158 83.389,19.124 79.009,13.849 75.874,7.951 71.66,9.447 67.087,9.114 63.145,8.277 57.525,7.084 52.216,5.304 47.95,5.304 Z"
     class="k"
     id="path6" />
  <g
     fill="#4faeff"
     id="g12"
     transform="translate(-57.052,-75.716)">
    <path
       d="m 142.326,114.046 0.01,0.208 -0.01,-0.389 z"
       id="path8" />
    <path
       d="m 129.54,86.864 c -0.591,2.694 -1.583,5.296 -3.941,7.582 -0.62,3.447 -1.722,6.461 -4.966,7.547 1.739,4.922 -3.021,8.352 -3.873,8.442 l -3.888,8.385 h -7.247 -1.25 -7.247 l -3.888,-8.385 c -0.853,-0.09 -5.613,-3.52 -3.873,-8.442 -3.243,-1.087 -4.345,-4.1 -4.966,-7.547 C 82.043,92.16 81.052,89.558 80.46,86.864 L 78.4,86.505 A 43.88,43.88 0 0 1 66.388,99.917 c 1.203,4.652 1.527,9.425 1.285,14.128 v 19.751 c 0.325,22.565 11.675,35.023 16.549,37.178 3.631,1.605 7.373,2.165 11.857,3.285 2.768,0.692 5.905,1.844 8.92,3.7 3.015,-1.856 6.152,-3.008 8.92,-3.7 4.484,-1.12 8.226,-1.68 11.857,-3.285 4.874,-2.154 16.224,-14.612 16.549,-37.178 v -19.751 c -0.242,-4.704 0.082,-9.476 1.285,-14.128 A 43.88,43.88 0 0 1 131.6,86.506 c -0.686,0.152 -1.373,0.269 -2.059,0.359 z"
       id="path10" />
  </g>
  <path
     d="M 92.36,54.311 H 3.536 v 3.872 c 0.356,24.729 11.899,39.639 20.769,43.559 9.292,4.107 17.506,2.519 23.643,9.546 6.137,-7.027 14.351,-5.439 23.643,-9.546 8.87,-3.921 20.414,-18.83 20.769,-43.559 z"
     fill="#00923f"
     id="path14" />
  <path
     id="use16"
     d="M 47.948,0.682 C 37.159,0.682 25.626,8.58 18.041,1.58 14.581,9.797 9.501,16.842 0.89,21.329 3.228,26.45 3.866,32.138 3.536,38.149 v 20.033 c 0.356,24.729 11.899,39.639 20.769,43.559 9.292,4.107 17.506,2.519 23.643,9.546 6.137,-7.027 14.351,-5.439 23.643,-9.546 8.87,-3.921 20.414,-18.83 20.769,-43.559 V 38.149 C 92.029,32.138 92.668,26.45 95.006,21.329 86.395,16.842 81.316,9.797 77.855,1.58 70.27,8.58 58.737,0.682 47.948,0.682 Z"
     style="fill:none;stroke:#000000;stroke-width:1.365;" />
  <path
     d="m 15.364,54.311 c -0.027,9.502 3.42,29.527 19.944,37.249 h 12.64 12.64 C 77.112,83.838 80.559,63.813 80.532,54.311 H 47.948 Z"
     class="l"
     id="path18" />
  <g
     id="g1308">
    <path
       d="m 47.931,27.421 c -1.573,1.965 -6.251,7.387 -7.437,12.871 l 0.005,-0.029 c -1.097,-1.99 -2.653,-3.75 -4.544,-5.343 -4.793,3.145 -6.73,6.907 -8.342,9.534 L 23.541,38.851 15,54.312 h 24.286 v 5.781 h 4.912 l 3.734,-27.424 z m 0.001,0 v 5.247 l 3.734,27.424 h 4.912 V 54.311 H 80.864 C 78.665,45.709 75.363,40.196 72.323,38.85 l -4.072,5.603 c -1.612,-2.628 -3.549,-6.389 -8.342,-9.534 -1.891,1.593 -3.447,3.353 -4.544,5.343 l 0.004,0.023 c -1.188,-5.481 -5.863,-10.9 -7.436,-12.864 z"
       class="m"
       id="path20" />
    <path
       d="m 23.491,40.828 c 0.514,2.148 -2.056,3.913 -1.591,5.747 1.021,-0.25 2.416,-2.492 3.212,-0.722 0.726,-1.706 -0.992,-3.541 -1.621,-5.025 z m 12.563,-4.519 c -1.77,1.073 -3.56,2.388 -4.291,4.406 -0.551,0.891 -2.083,2.384 -0.302,1.044 1.094,-1.2 2.951,-2.043 3.939,-0.482 0.874,-0.707 1.798,-2.018 2.671,-0.507 -0.654,-1.232 -1.04,-3.147 -2.017,-4.461 z m 11.272,-6.108 c -2.183,2.582 -3.235,5.854 -4.648,8.872 -0.446,2.3 1.708,-0.716 2.035,-1.446 0.612,-1.736 1.938,-0.645 3.109,-1.216 1.782,0.377 3.212,1.435 4.551,2.592 0.438,0.678 1.464,1.927 0.692,0.461 -0.995,-2.056 -2.262,-3.988 -3.046,-6.139 -0.967,-0.988 -1.024,-3.955 -2.737,-3.272 z m 12.811,6.356 c -0.227,0.362 -0.899,1.638 -0.317,0.473 -0.847,0.772 -2.245,3.798 0.028,2.303 2.037,1.241 3.691,3.275 5.591,4.492 -1.788,-1.913 -2.806,-4.353 -4.251,-6.505 -0.351,-0.254 -0.581,-0.701 -1.052,-0.763 z m 12.236,4.511 c 0.119,1.282 -2.458,3.483 -0.006,3.037 1.335,0.01 2.449,3.188 3.082,2.674 -1.173,-1.813 -2.458,-3.615 -3.076,-5.71 z"
       fill="#1800dc"
       id="path22" />
  </g>
  <g
     id="g1388">
    <path
       d="M 68.998,68.555 H 26.9 c 3.317,8.484 11.696,14.094 21.049,14.094 9.353,0 17.73,-5.61 21.049,-14.094 z"
       fill="#00a9e5"
       class="i q"
       id="path24" />
    <path
       d="m 62.226,76.885 c -1.648,-0.325 -2.86,-0.825 -4.493,-1.373 -3.08,0.873 -4.417,2.004 -9.784,2.004 -5.367,0 -6.704,-1.132 -9.784,-2.004 -1.633,0.546 -2.846,1.047 -4.493,1.373 m 1.557,2.328 2.936,-0.987 c 3.08,0.873 4.417,2.004 9.784,2.004 5.367,0 6.704,-1.132 9.784,-2.004 l 2.936,0.987 m 4.542,-5.109 h -0.717 c -3.003,-0.227 -4.469,-0.904 -6.762,-1.672 -3.08,0.873 -4.417,2.004 -9.784,2.004 -5.367,0 -6.704,-1.132 -9.784,-2.004 -2.293,0.767 -3.758,1.444 -6.762,1.672 h -0.717 m -2.244,-3.229 h 0.588 c 4.742,0 6.309,-0.807 9.135,-1.753 3.08,0.873 4.417,2.004 9.784,2.004 5.367,0 6.704,-1.132 9.784,-2.004 2.826,0.947 4.394,1.753 9.135,1.753 h 0.588"
       stroke="#003f55"
       stroke-width="0.655"
       class="g i"
       id="path26" />
    <path
       d="m 51.168,82.615 c 0,0.772 0.632,1.399 1.41,1.399 a 1.41,1.41 0 0 0 0.996,-0.41 c 0.264,-0.263 0.412,-0.618 0.412,-0.989 0,-0.371 -0.148,-0.727 -0.412,-0.989 a 1.42,1.42 0 0 0 -0.996,-0.41 c -0.778,0 -1.41,0.627 -1.41,1.399 z m 4.05,-0.806 c 0,0.371 0.148,0.727 0.412,0.989 a 1.42,1.42 0 0 0 0.996,0.41 c 0.373,0 0.732,-0.147 0.996,-0.41 0.264,-0.263 0.412,-0.618 0.412,-0.989 0,-0.371 -0.148,-0.727 -0.412,-0.989 a 1.42,1.42 0 0 0 -0.996,-0.41 c -0.373,0 -0.732,0.147 -0.996,0.41 -0.264,0.263 -0.412,0.618 -0.412,0.989 z m 3.834,-1.73 c 0,0.371 0.148,0.727 0.412,0.989 a 1.42,1.42 0 0 0 0.996,0.41 c 0.373,0 0.732,-0.147 0.996,-0.41 0.264,-0.263 0.412,-0.618 0.412,-0.989 0,-0.371 -0.148,-0.727 -0.412,-0.989 A 1.42,1.42 0 0 0 60.46,78.68 c -0.373,0 -0.732,0.147 -0.996,0.41 -0.264,0.263 -0.412,0.618 -0.412,0.989 z m 2.907,-2.857 c 0,0.371 0.148,0.727 0.412,0.989 a 1.42,1.42 0 0 0 0.996,0.41 c 0.778,0 1.41,-0.627 1.41,-1.399 0,-0.772 -0.631,-1.399 -1.41,-1.399 a 1.41,1.41 0 0 0 -0.996,0.41 c -0.264,0.263 -0.412,0.618 -0.412,0.989 z m 3.142,-3.381 c 0,0.772 0.631,1.399 1.41,1.399 0.779,0 1.41,-0.627 1.41,-1.399 0,-0.371 -0.148,-0.727 -0.412,-0.989 a 1.42,1.42 0 0 0 -0.996,-0.41 c -0.778,0 -1.41,0.627 -1.41,1.399 z m 2.156,-3.669 c 0,0.371 0.148,0.727 0.412,0.989 a 1.42,1.42 0 0 0 0.996,0.41 c 0.373,0 0.732,-0.147 0.996,-0.41 0.264,-0.263 0.412,-0.618 0.412,-0.989 0,-0.371 -0.148,-0.727 -0.412,-0.989 a 1.42,1.42 0 0 0 -0.996,-0.41 c -0.373,0 -0.732,0.147 -0.996,0.41 -0.264,0.263 -0.412,0.618 -0.412,0.989 z M 49.358,82.848 c 0,0.371 -0.148,0.727 -0.412,0.989 a 1.42,1.42 0 0 1 -0.996,0.41 c -0.373,0 -0.732,-0.147 -0.996,-0.41 -0.264,-0.263 -0.412,-0.618 -0.412,-0.989 0,-0.371 0.148,-0.727 0.412,-0.989 a 1.42,1.42 0 0 1 0.996,-0.41 c 0.373,0 0.732,0.147 0.996,0.41 0.264,0.263 0.412,0.618 0.412,0.989 z m -4.629,-0.233 c 0,0.772 -0.632,1.399 -1.41,1.399 a 1.41,1.41 0 0 1 -0.996,-0.41 c -0.264,-0.263 -0.412,-0.618 -0.412,-0.989 0,-0.371 0.148,-0.727 0.412,-0.989 a 1.42,1.42 0 0 1 0.996,-0.41 c 0.778,0 1.41,0.627 1.41,1.399 z m -4.05,-0.806 c 0,0.371 -0.148,0.727 -0.412,0.989 a 1.42,1.42 0 0 1 -0.996,0.41 c -0.373,0 -0.732,-0.147 -0.996,-0.41 -0.264,-0.263 -0.412,-0.618 -0.412,-0.989 0,-0.371 0.148,-0.727 0.412,-0.989 a 1.42,1.42 0 0 1 0.996,-0.41 c 0.373,0 0.732,0.147 0.996,0.41 0.264,0.263 0.412,0.618 0.412,0.989 z m -3.834,-1.73 c 0,0.371 -0.148,0.727 -0.412,0.989 a 1.42,1.42 0 0 1 -0.996,0.41 c -0.373,0 -0.732,-0.147 -0.996,-0.41 -0.264,-0.263 -0.412,-0.618 -0.412,-0.989 0,-0.371 0.148,-0.727 0.412,-0.989 a 1.42,1.42 0 0 1 0.996,-0.41 c 0.373,0 0.732,0.147 0.996,0.41 0.264,0.263 0.412,0.618 0.412,0.989 z m -2.907,-2.857 c 0,0.371 -0.148,0.727 -0.412,0.989 a 1.42,1.42 0 0 1 -0.996,0.41 c -0.373,0 -0.732,-0.147 -0.996,-0.41 -0.264,-0.263 -0.412,-0.618 -0.412,-0.989 0,-0.371 0.148,-0.727 0.412,-0.989 a 1.42,1.42 0 0 1 0.996,-0.41 c 0.373,0 0.732,0.147 0.996,0.41 0.264,0.263 0.412,0.618 0.412,0.989 z m -3.142,-3.381 c 0,0.772 -0.631,1.399 -1.41,1.399 -0.779,0 -1.41,-0.627 -1.41,-1.399 0,-0.371 0.148,-0.727 0.412,-0.989 a 1.42,1.42 0 0 1 0.996,-0.41 c 0.373,0 0.732,0.147 0.996,0.41 0.264,0.263 0.412,0.618 0.412,0.989 z M 28.64,70.172 c 0,0.371 -0.148,0.727 -0.412,0.989 a 1.42,1.42 0 0 1 -0.996,0.41 c -0.373,0 -0.732,-0.147 -0.996,-0.41 -0.264,-0.263 -0.412,-0.618 -0.412,-0.989 0,-0.371 0.148,-0.727 0.412,-0.989 a 1.42,1.42 0 0 1 0.996,-0.41 c 0.373,0 0.732,0.147 0.996,0.41 0.264,0.263 0.412,0.618 0.412,0.989 z"
       class="i l q"
       id="path28" />
    <path
       id="use30"
       d="m 28.642,70.171 a 1.41,1.399 0 0 1 -1.41,1.399 1.41,1.399 0 0 1 -1.41,-1.399 1.41,1.399 0 0 1 1.41,-1.399 1.41,1.399 0 0 1 1.41,1.399 z"
       style="opacity:0.998;fill:none;stroke:#b75700;stroke-width:0.943" />
    <path
       id="use32"
       d="m 30.798,73.841 a 1.41,1.399 0 0 1 -1.41,1.399 1.41,1.399 0 0 1 -1.41,-1.399 1.41,1.399 0 0 1 1.41,-1.399 1.41,1.399 0 0 1 1.41,1.399 z"
       style="opacity:0.998;fill:none;stroke:#b75700;stroke-width:0.943" />
    <path
       id="use34"
       d="m 33.939,77.222 a 1.41,1.399 0 0 1 -1.41,1.399 1.41,1.399 0 0 1 -1.41,-1.399 1.41,1.399 0 0 1 1.41,-1.399 1.41,1.399 0 0 1 1.41,1.399 z"
       style="opacity:0.998;fill:none;stroke:#b75700;stroke-width:0.943" />
    <path
       id="use36"
       d="m 36.847,80.079 a 1.41,1.399 0 0 1 -1.41,1.399 1.41,1.399 0 0 1 -1.41,-1.399 1.41,1.399 0 0 1 1.41,-1.399 1.41,1.399 0 0 1 1.41,1.399 z"
       style="opacity:0.998;fill:none;stroke:#b75700;stroke-width:0.943" />
    <path
       id="use38"
       d="m 40.681,81.808 a 1.41,1.399 0 0 1 -1.41,1.399 1.41,1.399 0 0 1 -1.41,-1.399 1.41,1.399 0 0 1 1.41,-1.399 1.41,1.399 0 0 1 1.41,1.399 z"
       style="opacity:0.998;fill:none;stroke:#b75700;stroke-width:0.943" />
    <path
       id="use40"
       d="M 44.73,82.615 A 1.41,1.399 0 0 1 43.32,84.014 1.41,1.399 0 0 1 41.909999,82.615 1.41,1.399 0 0 1 43.32,81.216 1.41,1.399 0 0 1 44.73,82.615 Z"
       style="opacity:0.998;fill:none;stroke:#b75700;stroke-width:0.943" />
    <path
       id="use42"
       d="m 49.359,82.847 a 1.41,1.399 0 0 1 -1.41,1.399 1.41,1.399 0 0 1 -1.41,-1.399 1.41,1.399 0 0 1 1.41,-1.399 1.41,1.399 0 0 1 1.41,1.399 z"
       style="opacity:0.998;fill:none;stroke:#b75700;stroke-width:0.943" />
    <path
       id="use44"
       d="m 67.257,70.171 c 0,0.371 0.148,0.727 0.412,0.989 a 1.42,1.42 0 0 0 0.996,0.41 c 0.373,0 0.732,-0.147 0.996,-0.41 0.264,-0.263 0.412,-0.618 0.412,-0.989 0,-0.371 -0.148,-0.727 -0.412,-0.989 a 1.42,1.42 0 0 0 -0.996,-0.41 c -0.373,0 -0.732,0.147 -0.996,0.41 -0.264,0.263 -0.412,0.618 -0.412,0.989 z"
       style="opacity:0.998;fill:none;stroke:#b75700;stroke-width:0.943" />
    <path
       d="m 65.1,73.841 c 0,0.772 0.632,1.399 1.41,1.399 0.778,0 1.41,-0.627 1.41,-1.399 0,-0.371 -0.148,-0.727 -0.412,-0.989 a 1.42,1.42 0 0 0 -0.996,-0.41 c -0.778,0 -1.41,0.627 -1.41,1.399 z m -3.141,3.381 c 0,0.371 0.148,0.727 0.412,0.989 a 1.42,1.42 0 0 0 0.996,0.41 c 0.778,0 1.41,-0.627 1.41,-1.399 0,-0.772 -0.631,-1.399 -1.41,-1.399 a 1.41,1.41 0 0 0 -0.996,0.41 1.398,1.398 0 0 0 -0.412,0.989 z"
       class="i"
       id="path46"
       style="fill:none;stroke:#b75700;stroke-width:0.943" />
    <path
       id="use48"
       d="m 59.052,80.079 c 0,0.371 0.148,0.727 0.412,0.989 a 1.42,1.42 0 0 0 0.996,0.41 c 0.373,0 0.732,-0.147 0.996,-0.41 0.264,-0.263 0.412,-0.618 0.412,-0.989 0,-0.371 -0.148,-0.727 -0.412,-0.989 A 1.42,1.42 0 0 0 60.46,78.68 c -0.373,0 -0.732,0.147 -0.996,0.41 -0.264,0.263 -0.412,0.618 -0.412,0.989 z"
       style="opacity:0.998;fill:none;stroke:#b75700;stroke-width:0.943" />
    <path
       id="use50"
       d="m 55.218,81.808 c 0,0.371 0.148,0.727 0.412,0.989 a 1.42,1.42 0 0 0 0.996,0.41 c 0.373,0 0.732,-0.147 0.996,-0.41 0.264,-0.263 0.412,-0.618 0.412,-0.989 0,-0.371 -0.148,-0.727 -0.412,-0.989 a 1.42,1.42 0 0 0 -0.996,-0.41 c -0.373,0 -0.732,0.147 -0.996,0.41 -0.264,0.263 -0.412,0.618 -0.412,0.989 z"
       style="opacity:0.998;fill:none;stroke:#b75700;stroke-width:0.943" />
    <path
       d="m 51.168,82.615 c 0,0.772 0.632,1.399 1.41,1.399 a 1.41,1.41 0 0 0 0.996,-0.41 c 0.264,-0.263 0.412,-0.618 0.412,-0.989 0,-0.371 -0.148,-0.727 -0.412,-0.989 a 1.42,1.42 0 0 0 -0.996,-0.41 c -0.778,0 -1.41,0.627 -1.41,1.399 z"
       class="i"
       id="path52"
       style="fill:none;stroke:#b75700;stroke-width:0.943" />
    <path
       d="m 27.388,70.66 1.578,2.762 m 0.727,0.887 2.18,2.617 m 0.892,0.742 2.16,2.226 m 0.938,0.568 2.701,1.312 m 1.204,0.175 2.962,0.646 m 1.149,0.083 3.317,0.321 m 21.099,-12.338 -1.578,2.762 m -0.726,0.887 -2.18,2.617 m -0.892,0.742 -2.16,2.226 m -0.94,0.568 -2.701,1.312 m -1.204,0.175 -2.963,0.646 M 51.804,82.679 48.487,83"
       class="i s"
       id="path54"
       style="fill:none;stroke:#b75700;stroke-width:0.943" />
    <path
       d="m 54.856,57.404 a 1.185,1.185 0 1 1 -2.37,0 1.185,1.185 0 1 1 2.37,0 z m -11.447,0 a 1.185,1.185 0 0 1 -2.37,0 1.185,1.185 0 1 1 2.37,0 z"
       class="i l"
       id="path58"
       style="fill-rule:evenodd" />
    <path
       d="m 39.286,60.091 h 17.325 v 8.451 H 39.286 Z"
       class="h i t u v"
       id="path60"
       style="fill-rule:evenodd;stroke-width:0.34395868;stroke-miterlimit:4;stroke-dasharray:none" />
    <path
       d="M 56.611,47.369 V 68.542 H 68.429 V 60.639 H 64.37 Z"
       id="path1362"
       style="fill:#a9a9a9;fill-opacity:1;stroke:#000000;stroke-opacity:1;stroke-width:0.34395868;stroke-miterlimit:4;stroke-dasharray:none" />
    <path
       d="m 47.931,32.667 -3.738,27.456 h 3.738 3.738 c 0.158,0 -3.738,-27.456 -3.738,-27.456 z"
       id="path64"
       style="fill:#a9a9a9;fill-opacity:1;stroke:#000000;stroke-opacity:1;stroke-width:0.34395868;stroke-miterlimit:4;stroke-dasharray:none" />
    <path
       d="m 58.34,52.396 v 14.747 m 2.001,-10.568 v 10.569 m 2.177,-5.25 v 5.249 m 2.054,-5.249 v 5.249 m 2.212,-5.249 v 5.249"
       class="g h t"
       id="path66" />
    <path
       d="m 31.526,60.639 7.76,-13.27 V 68.542 H 27.467 v -7.903 z"
       class="h t v"
       id="path68"
       style="stroke-width:0.34395868;stroke-miterlimit:4;stroke-dasharray:none" />
    <path
       d="M 37.556,52.396 V 67.143 M 35.555,56.575 v 10.569 m -2.177,-5.25 v 5.249 m -2.054,-5.249 v 5.249 m -2.212,-5.249 v 5.249"
       class="t"
       id="path70"
       style="fill:none;stroke:#000000" />
    <path
       d="m 47.089,38.85 h 1.714"
       stroke-width="1.058"
       id="path72"
       style="fill:none;stroke:#000000" />
  </g>
  <g
     id="g1341">
    <path
       id="use76"
       d="m 17.315,37.65 c -0.026,-0.304 0.513,-1.444 1.688,-1.167 0.213,-1.493 1.366,-1.092 1.564,-0.72 1.82,-1.564 3.07,0.943 2.284,1.415 1.131,0.12 0.956,0.927 0.869,1.688 0.519,0.776 -0.068,1.094 -0.273,1.341 l -4.891,1.738 c -0.124,0.05 -1.241,-4.295 -1.241,-4.295 z"
       style="fill:#d8d8d8;stroke:#6f6f6f;stroke-width:0.265;" />
    <path
       id="use78"
       d="m 21.845,36.155 c 0.543,0.125 0.246,0.73 0.307,1.117 0.066,0.405 0.7,0.238 0.672,0.698 -0.159,0.409 0.298,0.663 0.241,1.025 -0.184,0.297 -0.61,0.424 -0.936,0.324 -0.45,-0.193 -0.41,-0.75 -0.533,-1.146 -0.064,-0.455 -0.469,-0.843 -0.946,-0.698 -0.453,0.114 -0.926,0.175 -1.353,0.375 -0.347,0.17 -0.94,0.161 -1.028,-0.305 -0.048,-0.467 0.523,-0.42 0.829,-0.491 0.449,-0.047 0.266,-0.724 0.741,-0.739 0.33,0.079 0.604,0.213 0.967,-0.072 0.363,-0.285 0.719,-0.162 1.039,-0.089 z"
       style="fill:#ffffff;" />
    <path
       id="use80"
       d="m 17.404,37.797 c 0.747,0.427 0.988,1.043 1.217,1.663 1.193,-0.974 1.562,-0.815 2.284,-1.142 0.319,0.892 0.335,1.632 0.124,2.259 0.819,-0.469 1.639,-0.417 2.458,-0.298 -1.47,1.186 -1.936,3.188 -5.338,2.806 -1.479,-1.763 -0.8,-3.526 -0.745,-5.288 z"
       style="fill:#11009a;stroke:#070042;stroke-width:0.265;" />
    <g
       transform="matrix(1.101006,-0.205827,0.220654,1.027026,-262.40266,-25.478209)"
       id="g88">
      <path
         id="use82"
         d="m 228.643,113.366 c -0.026,-0.304 0.513,-1.444 1.688,-1.167 0.213,-1.493 1.366,-1.092 1.564,-0.72 1.82,-1.564 3.07,0.943 2.284,1.415 1.131,0.12 0.956,0.927 0.869,1.688 0.519,0.776 -0.068,1.094 -0.273,1.341 l -4.891,1.738 c -0.124,0.05 -1.241,-4.295 -1.241,-4.295 z"
         style="fill:#d8d8d8;stroke:#6f6f6f;stroke-width:0.265;" />
      <path
         id="use84"
         d="m 233.173,111.871 c 0.543,0.125 0.246,0.73 0.307,1.117 0.066,0.405 0.7,0.238 0.672,0.698 -0.159,0.409 0.298,0.663 0.241,1.025 -0.184,0.297 -0.61,0.424 -0.936,0.324 -0.45,-0.193 -0.41,-0.75 -0.533,-1.146 -0.064,-0.455 -0.469,-0.843 -0.946,-0.698 -0.453,0.114 -0.926,0.175 -1.353,0.375 -0.347,0.17 -0.94,0.161 -1.028,-0.305 -0.048,-0.467 0.523,-0.42 0.829,-0.491 0.449,-0.047 0.266,-0.724 0.741,-0.739 0.33,0.079 0.604,0.213 0.967,-0.072 0.363,-0.285 0.719,-0.162 1.039,-0.089 z"
         style="fill:#ffffff;" />
      <path
         id="use86"
         d="m 228.73299,113.513 c 0.747,0.427 0.988,1.043 1.217,1.663 1.193,-0.974 1.562,-0.815 2.284,-1.142 0.319,0.892 0.335,1.632 0.124,2.259 0.819,-0.469 1.639,-0.417 2.458,-0.298 -1.47,1.186 -1.936,3.188 -5.338,2.806 -1.479,-1.763 -0.8,-3.526 -0.745,-5.288 z"
         style="fill:#11009a;stroke:#070042;stroke-width:0.265;" />
    </g>
    <g
       transform="matrix(1.192791,-0.222986,0.239048,1.112643,-286.86466,-24.5763)"
       id="g96">
      <path
         id="use90"
         d="m 228.643,113.366 c -0.026,-0.304 0.513,-1.444 1.688,-1.167 0.213,-1.493 1.366,-1.092 1.564,-0.72 1.82,-1.564 3.07,0.943 2.284,1.415 1.131,0.12 0.956,0.927 0.869,1.688 0.519,0.776 -0.068,1.094 -0.273,1.341 l -4.891,1.738 c -0.124,0.05 -1.241,-4.295 -1.241,-4.295 z"
         style="fill:#d8d8d8;stroke:#6f6f6f;stroke-width:0.265;" />
      <path
         id="use92"
         d="m 233.173,111.871 c 0.543,0.125 0.246,0.73 0.307,1.117 0.066,0.405 0.7,0.238 0.672,0.698 -0.159,0.409 0.298,0.663 0.241,1.025 -0.184,0.297 -0.61,0.424 -0.936,0.324 -0.45,-0.193 -0.41,-0.75 -0.533,-1.146 -0.064,-0.455 -0.469,-0.843 -0.946,-0.698 -0.453,0.114 -0.926,0.175 -1.353,0.375 -0.347,0.17 -0.94,0.161 -1.028,-0.305 -0.048,-0.467 0.523,-0.42 0.829,-0.491 0.449,-0.047 0.266,-0.724 0.741,-0.739 0.33,0.079 0.604,0.213 0.967,-0.072 0.363,-0.285 0.719,-0.162 1.039,-0.089 z"
         style="fill:#ffffff;" />
      <path
         id="use94"
         d="m 228.73299,113.513 c 0.747,0.427 0.988,1.043 1.217,1.663 1.193,-0.974 1.562,-0.815 2.284,-1.142 0.319,0.892 0.335,1.632 0.124,2.259 0.819,-0.469 1.639,-0.417 2.458,-0.298 -1.47,1.186 -1.936,3.188 -5.338,2.806 -1.479,-1.763 -0.8,-3.526 -0.745,-5.288 z"
         style="fill:#11009a;stroke:#070042;stroke-width:0.265;" />
    </g>
    <g
       transform="matrix(1.161077,-0.57657,0.569739,1.074019,-318.31514,68.56037)"
       id="g104">
      <path
         id="use98"
         d="m 228.643,113.366 c -0.026,-0.304 0.513,-1.444 1.688,-1.167 0.213,-1.493 1.366,-1.092 1.564,-0.72 1.82,-1.564 3.07,0.943 2.284,1.415 1.131,0.12 0.956,0.927 0.869,1.688 0.519,0.776 -0.068,1.094 -0.273,1.341 l -4.891,1.738 c -0.124,0.05 -1.241,-4.295 -1.241,-4.295 z"
         style="fill:#d8d8d8;stroke:#6f6f6f;stroke-width:0.265;" />
      <path
         id="use100"
         d="m 233.173,111.871 c 0.543,0.125 0.246,0.73 0.307,1.117 0.066,0.405 0.7,0.238 0.672,0.698 -0.159,0.409 0.298,0.663 0.241,1.025 -0.184,0.297 -0.61,0.424 -0.936,0.324 -0.45,-0.193 -0.41,-0.75 -0.533,-1.146 -0.064,-0.455 -0.469,-0.843 -0.946,-0.698 -0.453,0.114 -0.926,0.175 -1.353,0.375 -0.347,0.17 -0.94,0.161 -1.028,-0.305 -0.048,-0.467 0.523,-0.42 0.829,-0.491 0.449,-0.047 0.266,-0.724 0.741,-0.739 0.33,0.079 0.604,0.213 0.967,-0.072 0.363,-0.285 0.719,-0.162 1.039,-0.089 z"
         style="fill:#ffffff;" />
      <path
         id="use102"
         d="m 228.73299,113.513 c 0.747,0.427 0.988,1.043 1.217,1.663 1.193,-0.974 1.562,-0.815 2.284,-1.142 0.319,0.892 0.335,1.632 0.124,2.259 0.819,-0.469 1.639,-0.417 2.458,-0.298 -1.47,1.186 -1.936,3.188 -5.338,2.806 -1.479,-1.763 -0.8,-3.526 -0.745,-5.288 z"
         style="fill:#11009a;stroke:#070042;stroke-width:0.265;" />
    </g>
    <g
       transform="matrix(1.280491,-0.709842,0.769589,1.06556,-368.46615,107.82508)"
       id="g112">
      <path
         id="use106"
         d="m 228.643,113.366 c -0.026,-0.304 0.513,-1.444 1.688,-1.167 0.213,-1.493 1.366,-1.092 1.564,-0.72 1.82,-1.564 3.07,0.943 2.284,1.415 1.131,0.12 0.956,0.927 0.869,1.688 0.519,0.776 -0.068,1.094 -0.273,1.341 l -4.891,1.738 c -0.124,0.05 -1.241,-4.295 -1.241,-4.295 z"
         style="fill:#d8d8d8;stroke:#6f6f6f;stroke-width:0.265;" />
      <path
         id="use108"
         d="m 233.173,111.871 c 0.543,0.125 0.246,0.73 0.307,1.117 0.066,0.405 0.7,0.238 0.672,0.698 -0.159,0.409 0.298,0.663 0.241,1.025 -0.184,0.297 -0.61,0.424 -0.936,0.324 -0.45,-0.193 -0.41,-0.75 -0.533,-1.146 -0.064,-0.455 -0.469,-0.843 -0.946,-0.698 -0.453,0.114 -0.926,0.175 -1.353,0.375 -0.347,0.17 -0.94,0.161 -1.028,-0.305 -0.048,-0.467 0.523,-0.42 0.829,-0.491 0.449,-0.047 0.266,-0.724 0.741,-0.739 0.33,0.079 0.604,0.213 0.967,-0.072 0.363,-0.285 0.719,-0.162 1.039,-0.089 z"
         style="fill:#ffffff;" />
      <path
         id="use110"
         d="m 228.73299,113.513 c 0.747,0.427 0.988,1.043 1.217,1.663 1.193,-0.974 1.562,-0.815 2.284,-1.142 0.319,0.892 0.335,1.632 0.124,2.259 0.819,-0.469 1.639,-0.417 2.458,-0.298 -1.47,1.186 -1.936,3.188 -5.338,2.806 -1.479,-1.763 -0.8,-3.526 -0.745,-5.288 z"
         style="fill:#11009a;stroke:#070042;stroke-width:0.265;" />
    </g>
    <g
       transform="matrix(1.186347,-1.213943,1.208879,0.927769,-394.93776,248.1136)"
       id="g120">
      <path
         id="use114"
         d="m 228.643,113.366 c -0.026,-0.304 0.513,-1.444 1.688,-1.167 0.213,-1.493 1.366,-1.092 1.564,-0.72 1.82,-1.564 3.07,0.943 2.284,1.415 1.131,0.12 0.956,0.927 0.869,1.688 0.519,0.776 -0.068,1.094 -0.273,1.341 l -4.891,1.738 c -0.124,0.05 -1.241,-4.295 -1.241,-4.295 z"
         style="fill:#d8d8d8;stroke:#6f6f6f;stroke-width:0.265;" />
      <path
         id="use116"
         d="m 233.173,111.871 c 0.543,0.125 0.246,0.73 0.307,1.117 0.066,0.405 0.7,0.238 0.672,0.698 -0.159,0.409 0.298,0.663 0.241,1.025 -0.184,0.297 -0.61,0.424 -0.936,0.324 -0.45,-0.193 -0.41,-0.75 -0.533,-1.146 -0.064,-0.455 -0.469,-0.843 -0.946,-0.698 -0.453,0.114 -0.926,0.175 -1.353,0.375 -0.347,0.17 -0.94,0.161 -1.028,-0.305 -0.048,-0.467 0.523,-0.42 0.829,-0.491 0.449,-0.047 0.266,-0.724 0.741,-0.739 0.33,0.079 0.604,0.213 0.967,-0.072 0.363,-0.285 0.719,-0.162 1.039,-0.089 z"
         style="fill:#ffffff;" />
      <path
         id="use118"
         d="m 228.73299,113.513 c 0.747,0.427 0.988,1.043 1.217,1.663 1.193,-0.974 1.562,-0.815 2.284,-1.142 0.319,0.892 0.335,1.632 0.124,2.259 0.819,-0.469 1.639,-0.417 2.458,-0.298 -1.47,1.186 -1.936,3.188 -5.338,2.806 -1.479,-1.763 -0.8,-3.526 -0.745,-5.288 z"
         style="fill:#11009a;stroke:#070042;stroke-width:0.265;" />
    </g>
    <g
       transform="matrix(1.00383,-1.368722,1.327343,0.748535,-361.2278,312.58882)"
       id="g128">
      <path
         id="use122"
         d="m 228.643,113.366 c -0.026,-0.304 0.513,-1.444 1.688,-1.167 0.213,-1.493 1.366,-1.092 1.564,-0.72 1.82,-1.564 3.07,0.943 2.284,1.415 1.131,0.12 0.956,0.927 0.869,1.688 0.519,0.776 -0.068,1.094 -0.273,1.341 l -4.891,1.738 c -0.124,0.05 -1.241,-4.295 -1.241,-4.295 z"
         style="fill:#d8d8d8;stroke:#6f6f6f;stroke-width:0.265;" />
      <path
         id="use124"
         d="m 233.173,111.871 c 0.543,0.125 0.246,0.73 0.307,1.117 0.066,0.405 0.7,0.238 0.672,0.698 -0.159,0.409 0.298,0.663 0.241,1.025 -0.184,0.297 -0.61,0.424 -0.936,0.324 -0.45,-0.193 -0.41,-0.75 -0.533,-1.146 -0.064,-0.455 -0.469,-0.843 -0.946,-0.698 -0.453,0.114 -0.926,0.175 -1.353,0.375 -0.347,0.17 -0.94,0.161 -1.028,-0.305 -0.048,-0.467 0.523,-0.42 0.829,-0.491 0.449,-0.047 0.266,-0.724 0.741,-0.739 0.33,0.079 0.604,0.213 0.967,-0.072 0.363,-0.285 0.719,-0.162 1.039,-0.089 z"
         style="fill:#ffffff;" />
      <path
         id="use126"
         d="m 228.73299,113.513 c 0.747,0.427 0.988,1.043 1.217,1.663 1.193,-0.974 1.562,-0.815 2.284,-1.142 0.319,0.892 0.335,1.632 0.124,2.259 0.819,-0.469 1.639,-0.417 2.458,-0.298 -1.47,1.186 -1.936,3.188 -5.338,2.806 -1.479,-1.763 -0.8,-3.526 -0.745,-5.288 z"
         style="fill:#11009a;stroke:#070042;stroke-width:0.265;" />
    </g>
    <g
       transform="matrix(0.789375,-1.479689,1.40334,0.545512,-314.12409,367.62811)"
       id="g136">
      <path
         id="use130"
         d="m 228.643,113.366 c -0.026,-0.304 0.513,-1.444 1.688,-1.167 0.213,-1.493 1.366,-1.092 1.564,-0.72 1.82,-1.564 3.07,0.943 2.284,1.415 1.131,0.12 0.956,0.927 0.869,1.688 0.519,0.776 -0.068,1.094 -0.273,1.341 l -4.891,1.738 c -0.124,0.05 -1.241,-4.295 -1.241,-4.295 z"
         style="fill:#d8d8d8;stroke:#6f6f6f;stroke-width:0.265;" />
      <path
         id="use132"
         d="m 233.173,111.871 c 0.543,0.125 0.246,0.73 0.307,1.117 0.066,0.405 0.7,0.238 0.672,0.698 -0.159,0.409 0.298,0.663 0.241,1.025 -0.184,0.297 -0.61,0.424 -0.936,0.324 -0.45,-0.193 -0.41,-0.75 -0.533,-1.146 -0.064,-0.455 -0.469,-0.843 -0.946,-0.698 -0.453,0.114 -0.926,0.175 -1.353,0.375 -0.347,0.17 -0.94,0.161 -1.028,-0.305 -0.048,-0.467 0.523,-0.42 0.829,-0.491 0.449,-0.047 0.266,-0.724 0.741,-0.739 0.33,0.079 0.604,0.213 0.967,-0.072 0.363,-0.285 0.719,-0.162 1.039,-0.089 z"
         style="fill:#ffffff;" />
      <path
         id="use134"
         d="m 228.73299,113.513 c 0.747,0.427 0.988,1.043 1.217,1.663 1.193,-0.974 1.562,-0.815 2.284,-1.142 0.319,0.892 0.335,1.632 0.124,2.259 0.819,-0.469 1.639,-0.417 2.458,-0.298 -1.47,1.186 -1.936,3.188 -5.338,2.806 -1.479,-1.763 -0.8,-3.526 -0.745,-5.288 z"
         style="fill:#11009a;stroke:#070042;stroke-width:0.265;" />
    </g>
  </g>
  <g
     id="g1409">
    <path
       d="m 71.785,34.387 c 1.912,1.224 0.143,4.039 3.858,6.169 l 2.018,5.248 c -1.097,-0.278 -1.277,-0.766 -1.507,-1.536 -0.46,-1.537 -1.629,-2.978 -3.55,-3.476 -0.369,1.487 0.286,4.639 5.448,6.171 0.684,2.108 1.176,4.055 1.442,5.913 -0.654,-0.289 -1.201,-1.3 -1.652,-2.872 -0.356,-1.241 -1.442,-1.995 -2.706,-2.533 -0.421,2.614 0.834,4.497 2.846,5.452 0.915,0.434 1.182,1.466 1.774,2.271 0.133,1.549 0.173,3.06 0.133,4.53 -0.42,-0.644 -0.799,-1.098 -0.954,-2.421 -0.22,-1.874 -1.654,-2.924 -2.731,-3.898 -0.65,2.358 0.017,4.326 1.788,5.537 1.027,0.702 1.407,1.43 1.833,2.214 -0.106204,1.661644 -0.321333,3.314529 -0.644,4.948 -0.868,-1.697 0.32,-4.227 -3.076,-6.516 0.346,1.993 -1.434,3.238 2.11,6.356 0.488,0.68 0.513,1.228 0.604,1.795 l -0.973,3.32 c 0.424,-2.839 -0.674,-4.483 -1.873,-6.048 -1.801,4.968 0.391,5.414 1.498,7.088 -0.62,1.642 -1.338,3.198 -2.131,4.664 0.941,-3.73 10e-4,-3.856 -1.105,-6.854 -1.591,2.783 -1.459,5.501 0.366,8.155 -0.995,1.68 -2.086,3.228 -3.231,4.638 0.08,-1.759 2.787,-3.342 0.729,-7.945 -2.255,2.808 -3.006,4.837 -1.801,8.002 h -0.001 l 0.033,1.169 c -1.192379,1.353683 -2.485397,2.615278 -3.868,3.774 0.01,-1.96 3.482,-2.799 2.227,-8.05 -2.734,2.344 -3.847,4.199 -3.248,7.532 L 65.2,88.697 c -1.358,1.02 -3.153051,2.098778 -4.418051,2.725778 l 1.322014,1.03574 C 63.416818,91.703083 64.996056,90.687493 66.181,89.744 l 3.053,-0.208 c 3.053,0.926 5.062,-1.052 6.865,-3.599 -2.276,0.378 -4.43,-1.162 -6.917,2.563 -0.623,0.195 -1.246,0.261 -1.87,0.309 1.038,-0.902 2.018,-1.869 2.939,-2.887 l 3.373,-1.01 c 2.158,-0.233 4.307,-0.265 6.852,-5.913 -2.451,1.71 -5.083,0.286 -7.349,5.144 -0.602,0.197 -1.175,0.336 -1.741,0.463 1.059,-1.285 2.031,-2.636 2.915,-4.033 1.399,-0.763 2.806,-1.615 4.15,-1.763 4.421,-1.146 3.892,-4.921 4.285,-6.212 -1.944,1.564 -4.436,1.621 -6.083,6.033 l -1.641,0.779 c 0.987,-1.678 1.849,-3.41 2.587,-5.158 1.109,-0.896 2.186,-1.825 3.474,-2.474 1.64,-0.826 3.65,-3.156 3.501,-7.051 -1.675,2.113 -3.491,1.3 -4.99,7.051 l -1.383,0.983 c 0.607,-1.596 1.107,-3.196 1.503,-4.772 0.723,-1.01 1.454,-2.141 2.136,-2.522 3.625,-1.964 2.287,-5.195 2.669,-7.69 -1.44,1.823 -3.383,3.42 -3.459,7.532 l -0.955,0.968 c 0.367,-1.791 0.595,-3.537 0.676,-5.193 l 0.013,-0.36 c 0.581,-1.156 1.151,-2.331 1.952,-3.047 1.486,-1.407 1.824,-3.767 0.596,-7.424 -2.344,4.975 -2.46,4.065 -1.937,8.044 l -0.565,0.874 c 0.034,-2.098 -0.06,-4.051 -0.299,-5.925 l 0.641,-2.075 c 2.731,-3.634 0.818,-5.221 -0.149,-7.225 -0.783,1.91 -1.829,4.084 -0.347,7.101 l -0.312,1.046 c -0.346,-2.125 -0.893,-4.17 -1.666,-6.234 0.147,-0.677 0.329,-1.249 0.562,-1.666 1.515,-3.199 -0.389,-4.863 -2.011,-6.654 0.381,1.943 -0.593,3.278 1.49,5.984 -0.02126,0.481956 -0.16625,0.950322 -0.421,1.36 -0.625,-1.533 -1.371,-3.087 -2.261,-4.707 -0.263,-1.996 -0.961,-3.967 -4.27,-5.79 z"
       stroke="#252500"
       class="f l"
       id="path138"
       sodipodi:nodetypes="ccccccccccccccccccccccccccccccccccccccccccccccccccccccccccccccccccccccccccccccccc" />
    <g
       fill="#ffffa3"
       id="g152"
       transform="translate(-57.052,-75.716)">
      <path
         d="m 125.436,156.54 c 0.209,1.759 -0.174,3.412 -1.812,4.842 0.875,-1.614 1.467,-3.228 1.812,-4.842 z m 3.6,-5.053 c 0.607,1.664 0.613,3.361 -0.654,5.128 0.481,-1.771 0.688,-3.478 0.654,-5.128 z m 2.077,-4.531 c 1.054,1.424 1.541,3.05 0.825,5.103 -0.04,-1.835 -0.325,-3.531 -0.825,-5.103 z"
         id="path140" />
      <path
         id="use142"
         d="m 133.053,141.925 c 1.069,1.033 1.697,2.312 1.39,4.111 -0.287,-1.514 -0.758,-2.878 -1.39,-4.111 z" />
      <path
         id="use144"
         d="m 133.79,136.377 c 1.069,1.033 1.697,2.312 1.39,4.111 -0.287,-1.514 -0.758,-2.878 -1.39,-4.111 z" />
      <path
         id="use146"
         d="m 133.517,130.129 c 1.247,0.81 2.107,1.946 2.148,3.77 -0.571,-1.431 -1.293,-2.681 -2.148,-3.77 z" />
      <path
         id="use148"
         d="m 132.745,123.949 c 1.247,0.81 2.107,1.946 2.148,3.77 -0.571,-1.431 -1.293,-2.681 -2.148,-3.77 z" />
      <path
         d="m 130.125,117.17 c 1.365,0.589 2.405,1.563 2.752,3.355 -0.804,-1.315 -1.726,-2.425 -2.752,-3.355 z m 0.484,-5.388 c 0.998,0.627 1.694,1.517 1.749,2.964 a 12.01,12.01 0 0 0 -1.749,-2.964 z m 4.727,3.389 c 0.823,0.844 1.291,1.873 1.004,3.291 a 12.01,12.01 0 0 0 -1.004,-3.291 z m 3.043,5.919 c 0.689,1.228 0.91,2.559 0.141,4.106 a 14.34,14.34 0 0 0 -0.141,-4.106 z m 2.016,7.385 c 0.484,1.322 0.491,2.671 -0.514,4.076 a 14.34,14.34 0 0 0 0.514,-4.076 z m 0.503,7.53 c 0.24,1.387 0.006,2.716 -1.235,3.919 a 14.34,14.34 0 0 0 1.235,-3.919 z m -0.249,6.782 c -0.127,1.402 -0.698,2.624 -2.208,3.465 a 14.34,14.34 0 0 0 2.208,-3.465 z m -1.642,7.057 c -0.303,1.669 -1.118,3.075 -3.019,3.923 1.254,-1.232 2.25,-2.543 3.019,-3.923 z m -3.393,6.489 c -0.633,1.574 -1.714,2.787 -3.748,3.234 1.477,-0.954 2.716,-2.037 3.748,-3.234 z m -3.823,5.826 c -0.838,1.475 -2.072,2.533 -4.147,2.704 1.591,-0.748 2.964,-1.655 4.147,-2.704 z"
         id="path150" />
    </g>
  </g>
  <g
     id="g1413">
    <path
       d="m 22.456,16.082 2.458,6.461 c 6.833,-4.222 15.257,-6.244 23.034,-6.145 7.776,-0.099 16.201,1.923 23.034,6.145 L 73.44,16.082 C 66.777,12.259 57.869,8.445 47.948,8.445 c -9.921,0 -19.245,4.053 -25.491,7.637 z"
       stroke-width="0.765"
       class="h l"
       id="path154"
       style="stroke-width:0.55324431;stroke-miterlimit:4;stroke-dasharray:none" />
    <path
       d="m 52.422,11.368 0.429,0.05 -0.115,1.211 0.469,0.054 0.115,-1.211 0.431,0.05 -0.33,3.462 -0.431,-0.05 0.133,-1.4 -0.47,-0.054 -0.133,1.4 -0.429,-0.05 z m 2.198,3.225 -0.487,-0.075 -0.14,0.559 -0.437,-0.068 0.959,-3.367 0.466,0.072 0.081,3.528 -0.448,-0.069 z m 0.006,-0.76 0.005,-1.263 -0.31,1.216 z m 0.594,1.395 0.494,-3.438 0.711,0.124 c 0.132,0.023 0.229,0.069 0.29,0.138 0.061,0.069 0.103,0.182 0.124,0.342 a 2.12,2.12 0 0 1 -0.016,0.568 c -0.027,0.191 -0.067,0.353 -0.12,0.485 A 1.03,1.03 0 0 1 56.52,13.76 c -0.044,0.048 -0.101,0.085 -0.169,0.109 a 0.49,0.49 0 0 1 0.093,0.147 1.31,1.31 0 0 1 0.042,0.192 l 0.029,0.224 0.063,1.033 -0.482,-0.084 -0.077,-1.091 C 56.01,14.15 55.997,14.056 55.98,14.011 55.957,13.953 55.926,13.92 55.887,13.913 l -0.038,-0.007 -0.2,1.395 z m 0.722,-1.971 0.18,0.031 c 0.019,0.003 0.059,-0.005 0.119,-0.027 0.03,-0.01 0.059,-0.041 0.085,-0.096 a 0.68,0.68 0 0 0 0.055,-0.195 0.62,0.62 0 0 0 -0.006,-0.263 c -0.02,-0.065 -0.068,-0.104 -0.146,-0.117 l -0.187,-0.033 z m 1.643,1.128 0.125,-0.71 0.655,0.14 -0.257,1.457 c -0.163,0.186 -0.299,0.307 -0.409,0.363 a 0.53,0.53 0 0 1 -0.363,0.042 c -0.163,-0.035 -0.283,-0.133 -0.361,-0.293 -0.078,-0.16 -0.122,-0.383 -0.13,-0.669 a 4.77,4.77 0 0 1 0.081,-0.959 c 0.066,-0.373 0.154,-0.691 0.264,-0.954 0.11,-0.263 0.238,-0.452 0.382,-0.57 0.112,-0.091 0.247,-0.119 0.404,-0.085 0.151,0.032 0.259,0.091 0.322,0.176 0.063,0.085 0.107,0.204 0.131,0.358 a 2.68,2.68 0 0 1 0.015,0.571 l -0.441,0.094 a 0.84,0.84 0 0 0 -0.034,-0.314 c -0.028,-0.077 -0.073,-0.122 -0.136,-0.136 -0.093,-0.02 -0.181,0.045 -0.265,0.193 -0.084,0.148 -0.156,0.397 -0.218,0.746 -0.065,0.37 -0.084,0.64 -0.056,0.81 0.028,0.17 0.092,0.267 0.192,0.288 a 0.21,0.21 0 0 0 0.145,-0.023 0.8,0.8 0 0 0 0.179,-0.142 l 0.057,-0.322 z m 1.387,-1.956 1.127,0.287 -0.152,0.724 -0.706,-0.18 -0.113,0.539 0.655,0.167 -0.145,0.692 -0.655,-0.167 -0.14,0.668 0.726,0.185 -0.161,0.768 -1.148,-0.292 z m 1.499,0.376 0.39,0.115 0.056,2.01 0.452,-1.86 0.393,0.116 -0.817,3.363 -0.393,-0.116 -0.057,-1.996 -0.448,1.846 -0.392,-0.116 z m 1.753,2.825 0.192,-0.692 0.638,0.215 -0.393,1.419 c -0.179,0.166 -0.327,0.271 -0.441,0.314 -0.114,0.043 -0.237,0.043 -0.365,0 a 0.52,0.52 0 0 1 -0.332,-0.333 c -0.063,-0.168 -0.085,-0.395 -0.066,-0.68 0.019,-0.285 0.076,-0.6 0.171,-0.945 0.101,-0.364 0.219,-0.67 0.353,-0.918 0.134,-0.248 0.279,-0.422 0.434,-0.522 0.12,-0.077 0.257,-0.09 0.41,-0.038 0.153,0.052 0.249,0.12 0.304,0.212 0.055,0.092 0.087,0.215 0.096,0.371 0.009,0.156 -0.003,0.346 -0.039,0.569 l -0.447,0.042 a 0.84,0.84 0 0 0 -0.004,-0.317 c -0.021,-0.08 -0.061,-0.13 -0.122,-0.15 -0.091,-0.031 -0.184,0.023 -0.282,0.162 -0.098,0.139 -0.193,0.377 -0.287,0.717 -0.1,0.36 -0.144,0.627 -0.132,0.8 0.012,0.173 0.066,0.276 0.163,0.308 0.046,0.015 0.095,0.013 0.146,-0.006 a 0.73,0.73 0 0 0 0.191,-0.121 l 0.087,-0.314 z m 2.249,-1.507 0.674,0.271 c 0.147,0.059 0.228,0.19 0.244,0.394 0.016,0.204 -0.03,0.466 -0.135,0.787 -0.109,0.331 -0.234,0.573 -0.375,0.727 -0.141,0.154 -0.293,0.198 -0.457,0.132 l -0.222,-0.089 -0.401,1.214 -0.408,-0.164 z m -0.053,1.558 0.099,0.04 c 0.078,0.031 0.144,0.02 0.198,-0.035 0.054,-0.055 0.098,-0.136 0.133,-0.241 a 0.76,0.76 0 0 0 0.045,-0.278 C 64.891,15.085 64.852,15.028 64.776,14.998 L 64.66,14.952 Z m 0.31,2.207 1.182,-3.228 0.667,0.297 c 0.124,0.055 0.209,0.124 0.254,0.206 0.045,0.082 0.063,0.203 0.051,0.364 -0.012,0.161 -0.056,0.344 -0.131,0.549 a 2.08,2.08 0 0 1 -0.216,0.443 0.96,0.96 0 0 1 -0.242,0.26 c -0.053,0.036 -0.116,0.058 -0.187,0.064 a 0.53,0.53 0 0 1 0.061,0.166 1.27,1.27 0 0 1 0.002,0.198 l -0.017,0.226 -0.149,1.022 -0.452,-0.202 0.148,-1.082 a 1.18,1.18 0 0 0 0.018,-0.281 c -0.01,-0.062 -0.034,-0.102 -0.071,-0.118 l -0.035,-0.016 -0.48,1.31 z m 1.105,-1.741 0.169,0.075 c 0.018,0.008 0.059,0.01 0.122,0.004 0.032,-0.002 0.066,-0.026 0.102,-0.072 0.036,-0.046 0.068,-0.105 0.094,-0.176 0.038,-0.104 0.054,-0.19 0.048,-0.257 -0.006,-0.067 -0.045,-0.118 -0.118,-0.151 l -0.176,-0.078 z m 1.286,2.236 -0.449,-0.221 -0.274,0.495 -0.403,-0.198 1.764,-2.945 0.43,0.211 -0.804,3.416 -0.413,-0.203 z m 0.195,-0.728 0.32,-1.213 -0.602,1.074 z m 2.094,-1.245 0.389,0.209 -0.752,1.701 -0.399,0.795 a 1.25,1.25 0 0 1 -0.363,0.392 c -0.134,0.087 -0.261,0.099 -0.381,0.035 -0.127,-0.068 -0.206,-0.163 -0.238,-0.287 -0.032,-0.124 -0.031,-0.276 0.004,-0.461 a 3.41,3.41 0 0 1 0.202,-0.645 l 0.427,0.073 -0.121,0.315 c -0.021,0.072 -0.029,0.134 -0.025,0.187 0.003,0.036 0.018,0.06 0.045,0.075 0.043,0.023 0.093,0 0.149,-0.069 0.056,-0.069 0.126,-0.2 0.21,-0.39 z m 0.21,3.395 -0.43,-0.263 -0.312,0.466 -0.386,-0.236 1.99,-2.764 0.412,0.252 -1.071,3.326 -0.395,-0.242 z m 0.252,-0.707 0.415,-1.177 -0.684,1.012 z m -44.87,-2.033 1.236,-0.725 0.366,0.759 -0.415,0.243 1.116,2.314 -0.407,0.238 -1.116,-2.314 -0.414,0.243 z m 3.384,1.35 -0.475,0.244 0.155,0.554 -0.426,0.219 -0.826,-3.416 0.455,-0.234 1.842,2.894 -0.437,0.225 z m -0.376,-0.638 -0.629,-1.057 0.331,1.21 z m -0.262,-2.226 1.279,-0.628 0.317,0.786 -0.429,0.211 0.967,2.395 -0.421,0.207 -0.967,-2.395 -0.429,0.211 z m 3.294,1.643 -0.486,0.217 0.128,0.563 -0.436,0.194 -0.663,-3.459 0.466,-0.207 1.702,2.996 -0.447,0.199 z m -0.345,-0.658 -0.578,-1.092 0.273,1.228 z m 0.831,-2.588 0.724,-0.275 c 0.157,-0.06 0.303,-0.017 0.436,0.128 0.133,0.145 0.25,0.38 0.351,0.702 0.104,0.333 0.142,0.609 0.115,0.828 -0.027,0.219 -0.129,0.363 -0.304,0.429 l -0.238,0.09 0.381,1.222 -0.437,0.166 z m 0.875,1.237 0.107,-0.041 c 0.084,-0.032 0.132,-0.088 0.145,-0.169 a 0.61,0.61 0 0 0 -0.031,-0.281 0.69,0.69 0 0 0 -0.126,-0.246 c -0.052,-0.061 -0.118,-0.076 -0.2,-0.045 l -0.124,0.047 z m 1.583,1.528 -0.817,-3.363 0.741,-0.219 c 0.137,-0.041 0.249,-0.044 0.335,-0.01 0.086,0.034 0.169,0.118 0.25,0.254 a 1.92,1.92 0 0 1 0.199,0.524 c 0.045,0.187 0.067,0.353 0.066,0.498 -10e-4,0.145 -0.022,0.269 -0.06,0.371 a 0.49,0.49 0 0 1 -0.124,0.178 c 0.063,0.026 0.112,0.056 0.146,0.09 0.023,0.023 0.061,0.074 0.114,0.155 l 0.113,0.191 0.452,0.911 -0.503,0.149 -0.487,-0.958 c -0.062,-0.123 -0.11,-0.202 -0.144,-0.235 -0.044,-0.042 -0.087,-0.057 -0.128,-0.045 l -0.039,0.011 0.332,1.365 z m -0.038,-2.132 0.188,-0.055 c 0.02,-0.006 0.056,-0.032 0.107,-0.08 0.026,-0.023 0.042,-0.065 0.047,-0.127 A 0.65,0.65 0 0 0 34.271,14.116 C 34.245,14.007 34.21,13.929 34.166,13.879 34.122,13.829 34.06,13.816 33.979,13.84 l -0.195,0.058 z m 2.354,0.897 -0.509,0.14 0.056,0.577 -0.457,0.126 -0.22,-3.527 0.487,-0.134 1.307,3.228 -0.468,0.129 z m -0.259,-0.705 -0.434,-1.17 0.116,1.258 z m 0.413,-2.329 0.593,-0.139 0.628,2.018 -0.172,-2.125 0.59,-0.138 0.656,3.405 -0.368,0.086 -0.5,-2.596 0.215,2.663 -0.333,0.078 -0.785,-2.53 0.5,2.596 -0.369,0.087 z m 3.419,2.23 -0.517,0.1 0.019,0.58 -0.463,0.09 0.003,-3.536 0.494,-0.096 1.1,3.321 -0.475,0.092 z m -0.214,-0.723 -0.359,-1.201 0.036,1.264 z m 0.564,-2.22 0.426,-0.066 0.799,1.821 -0.243,-1.907 0.43,-0.067 0.439,3.447 -0.43,0.067 -0.794,-1.807 0.241,1.893 -0.429,0.066 z m 2.987,2.533 -0.522,0.06 -0.017,0.58 -0.468,0.054 0.227,-3.527 0.499,-0.058 0.887,3.397 -0.479,0.056 z m -0.167,-0.738 -0.283,-1.225 -0.044,1.263 z"
       fill="#000501"
       class="q"
       id="path156" />
  </g>
  <g
     id="g1304">
    <path
       d="m 47.948,6.847 c -1.073,2.013 -3.854,2.671 -3.125,6.109 l 1.299,6.601 c -9.505,-4.099 -9.223,1.305 -12.535,2.318 2.847,-0.053 3.724,1.822 8.989,0.843 -2.599,0.618 -4.88,1.597 -5.443,4.529 -0.124,1.03 -0.11,2.06 -0.105,3.09 1.387,-1.937 2.301,-0.776 4.038,-2.317 -2.757,2.854 -0.889,4.646 -1.019,7.128 1.93,-3.17 6.493,-3.521 7.9,-7.69 1.407,4.169 5.97,4.52 7.9,7.69 -0.13,-2.481 1.739,-4.274 -1.018,-7.128 1.737,1.541 2.651,0.381 4.038,2.317 0.004,-1.03 0.018,-2.06 -0.105,-3.09 -0.562,-2.932 -2.844,-3.911 -5.443,-4.529 5.265,0.979 6.142,-0.896 8.989,-0.843 -3.312,-1.013 -3.03,-6.417 -12.535,-2.318 0.574,-1.919 0.822,-4.351 1.299,-6.601 C 51.801,9.517 49.02,8.86 47.947,6.847 Z"
       fill="#1b7a02"
       stroke="#0a2e01"
       class="f"
       id="path158" />
    <g
       stroke="#176901"
       class="g r"
       id="g196"
       transform="translate(-57.052,-75.716)">
      <g
         class="s"
         id="g170">
        <path
           d="m 105,95.976 v -12.64 m -1.036,1.615 1.036,0.632 m -1.615,0.035 1.615,0.895 m -2.124,0.035 2.124,1.018"
           id="path160" />
        <path
           d="m 102.63,87.619 2.37,0.79 m -2.317,0.123 2.317,1.124 m -2.142,-0.088 2.142,0.93 m -2.072,-0.017 2.072,0.983 m -1.966,-0.035 1.966,0.948 m -1.527,-0.018 1.527,0.966 m -1.404,0.105 1.404,0.843 m -1.369,0.14 1.369,0.843"
           id="path162" />
        <path
           d="M 103.876,95.467 105,95.976 M 106.036,84.951 105,85.583 m 1.615,0.035 -1.615,0.895 m 2.124,0.035 -2.124,1.018 m 2.37,0.053 -2.37,0.79 m 2.317,0.123 -2.317,1.124 m 2.142,-0.088 -2.142,0.93 m 2.072,-0.017 -2.072,0.983 m 1.966,-0.035 -1.966,0.948 m 1.527,-0.018 -1.527,0.966 m 1.405,0.105 -1.404,0.843 m 1.368,0.14 -1.369,0.843 m 1.124,0.211 -1.124,0.509"
           id="path164" />
        <path
           d="m 92.104,97.217 c 6.976,-2.711 8.934,-0.559 11.818,0.695"
           id="path166" />
        <path
           d="m 92.911,97.609 0.465,-0.851 -0.483,-0.378 m 0.615,-0.352 0.59,0.502 -0.555,1.096 m 0.895,0.088 0.619,-1.44 -0.97,-0.737 m 0.825,-0.386 1.257,0.901 -0.73,1.627 m 0.878,0.14 0.638,-1.866 -1.34,-1.171 m 0.912,-0.228 1.404,1.357 -1,1.926 m 1.036,-0.053 0.842,-1.823 -1.229,-1.601 m 1.227,0.126 0.99,1.648 -1.064,1.568 m 1.068,0.235 0.832,-1.555 -0.82,-1.598 m 1.179,0.584 0.534,1.379 -1.043,1.228 m 0.547,0.198 1.122,-1.127 -0.377,-1.269 m 0.806,0.472 0.239,1.136 -1.095,0.912 m 0.645,0.149 1.129,-0.726 -0.347,-1.26"
           id="path168" />
      </g>
      <g
         transform="matrix(-1,0,0,1,364.36367,0)"
         class="s"
         id="g176">
        <path
           d="m 246.467,97.217 c 6.976,-2.711 8.934,-0.559 11.818,0.695"
           id="path172" />
        <path
           d="m 247.274,97.609 0.465,-0.851 -0.483,-0.378 m 0.615,-0.352 0.59,0.502 -0.555,1.096 m 0.895,0.088 0.619,-1.44 -0.97,-0.737 m 0.825,-0.386 1.257,0.901 -0.73,1.627 m 0.878,0.14 0.638,-1.866 -1.34,-1.171 m 0.912,-0.228 1.404,1.357 -1,1.926 m 1.036,-0.053 0.842,-1.823 -1.229,-1.601 m 1.227,0.126 0.99,1.648 -1.064,1.568 m 1.068,0.235 0.832,-1.555 -0.82,-1.598 m 1.179,0.584 0.534,1.379 -1.043,1.228 m 0.547,0.198 1.122,-1.127 -0.377,-1.269 m 0.806,0.472 0.239,1.136 -1.095,0.912 m 0.645,0.149 1.129,-0.726 -0.347,-1.26"
           id="path174" />
      </g>
      <g
         class="s"
         id="g184">
        <path
           d="m 101.471,99.575 c -1.989,0.858 -4.925,1.848 -6.706,4.881"
           id="path178" />
        <path
           d="m 95.519,104.42 -0.105,-0.924 -0.685,0.257 m -0.053,-0.702 1.3,-0.208 0.087,1.314 m 0.632,-0.263 -0.083,-1.658 -1.672,0.219 m 0.228,-0.703 2.129,-0.059 0.013,1.85 m -1.475,-2.493 2.297,0.095 -0.137,1.942 m 0.772,-0.317 0.047,-2.006 -2.242,-0.223 m 1.177,-0.703 1.903,0.518 -0.182,1.835 m -0.65,-2.739 1.706,0.522 -0.161,1.374 m 0.667,-0.702 0.439,-1.071 -1.457,-0.351 m 8.515,0.351 c 1.989,0.858 4.925,1.848 6.706,4.881"
           id="path180" />
        <path
           d="m 114.481,104.42 0.105,-0.924 0.685,0.257 m 0.053,-0.702 -1.3,-0.208 -0.087,1.314 m -0.632,-0.263 0.083,-1.658 1.672,0.219 m -0.228,-0.703 -2.129,-0.059 -0.013,1.85 m 1.475,-2.493 -2.297,0.095 0.137,1.942 m -0.772,-0.317 -0.047,-2.006 2.242,-0.223 m -1.177,-0.703 -1.903,0.518 0.182,1.835 m 0.65,-2.739 -1.706,0.522 0.161,1.374 m -0.667,-0.702 -0.439,-1.071 1.457,-0.351"
           id="path182" />
      </g>
      <path
         d="m 97.537,109.845 c 0.392,-4.303 3.93,-6.314 6.426,-8.497"
         id="path186" />
      <path
         d="m 97.431,105.737 1.933,-0.258 0.701,1.715 m -2.722,-0.72 1.457,-0.185 0.474,1.467 m -2.001,-0.667 1.09,-0.118 0.437,1.119 m -1.474,-0.281 0.696,-0.059 0.296,0.638 m -0.959,0.312 0.384,-0.076 0.274,0.33 m -0.304,-3.866 2.144,-0.175 0.786,1.876 m -2.372,-2.322 2.165,-0.144 0.74,2.143 m -2.197,-2.644 2.035,-0.03 0.77,2.339 m -2.284,-2.856 2.121,-0.004 0.784,2.276 m -2.507,-2.818 2.391,-0.004 0.651,2.263 m -2.62,-2.818 2.64,0.013 0.488,2.072 m -2.396,-2.569 2.486,0.023 0.258,1.839 m -1.862,-2.408 2.029,0.208 0.256,1.667"
         id="path188" />
      <g
         transform="matrix(-1,0,0,1,364.17836,0)"
         id="g194">
        <path
           d="m 251.716,109.845 c 0.392,-4.303 3.93,-6.314 6.426,-8.497"
           id="path190" />
        <path
           d="m 251.61,105.737 1.933,-0.258 0.701,1.715 m -2.722,-0.72 1.457,-0.185 0.474,1.467 m -2.001,-0.667 1.09,-0.118 0.437,1.119 m -1.474,-0.281 0.696,-0.059 0.296,0.638 m -0.959,0.312 0.384,-0.076 0.274,0.33 m -0.304,-3.866 2.144,-0.175 0.786,1.876 m -2.372,-2.322 2.165,-0.144 0.74,2.143 m -2.197,-2.644 2.035,-0.03 0.77,2.339 m -2.284,-2.856 2.121,-0.004 0.784,2.276 m -2.507,-2.818 2.391,-0.004 0.651,2.263 m -2.62,-2.818 2.64,0.013 0.488,2.072 m -2.396,-2.569 2.486,0.023 0.258,1.839 m -1.862,-2.408 2.029,0.208 0.256,1.667"
           id="path192" />
      </g>
    </g>
    <path
       d="m 47.946,21.063 0.764,2.352 h 2.476 l -2.003,1.454 0.764,2.354 -2.001,-1.454 -2.001,1.454 0.764,-2.354 -2.003,-1.454 h 2.476 z"
       stroke-width="0.382"
       class="h i l q"
       id="path198" />
  </g>
  <g
     transform="translate(-57.052,-75.319)"
     id="g216">
    <g
       class="h f"
       id="g212">
      <g
         transform="matrix(0.965658,-0.069082,0.069082,0.965658,-7.91476,13.667948)"
         id="g204">
        <path
           id="use200"
           d="m 95.855,152.465 10.734,26.912 1.361,-0.543 -10.319,-25.867 z"
           style="opacity:0.999;fill:#fdc600;" />
        <path
           id="use202"
           d="m 99.556,161.748 1.361,-0.543 m -3.038,-3.661 1.361,-0.543"
           style="opacity:0.999;fill:none;" />
      </g>
      <g
         transform="matrix(-0.965658,-0.069082,-0.069082,0.965658,217.77853,13.667948)"
         id="g210">
        <path
           id="use206"
           d="m 95.855,152.465 10.734,26.912 1.361,-0.543 -10.319,-25.867 z"
           style="opacity:0.999;fill:#fdc600;" />
        <path
           id="use208"
           d="m 99.556,161.748 1.361,-0.543 m -3.038,-3.661 1.361,-0.543"
           style="opacity:0.999;fill:none;" />
      </g>
    </g>
    <path
       d="m 103.545,172.662 c -0.16,0.001 -0.332,0.077 -0.451,0.241 -0.842,1.162 1.209,1.668 1.938,1.668 0.729,0 2.627,-0.505 1.785,-1.668 -0.19,-0.263 -0.517,-0.297 -0.71,-0.167 -0.384,0.295 -0.746,0.369 -1.152,0.369 -0.406,0 -0.767,-0.074 -1.151,-0.369 -0.072,-0.049 -0.164,-0.075 -0.259,-0.074 z"
       fill="#00008b"
       stroke="#000059"
       stroke-width="0.072"
       id="path214" />
  </g>
  <g
     id="g1399">
    <g
       class="h l u w"
       id="g222"
       transform="translate(-57.052,-75.716)"
       style="stroke-width:0.34422326;stroke-miterlimit:4;stroke-dasharray:none">
      <path
         d="m 96.046,172.941 c 0.075,1.822 -0.652,2.956 -1.194,4.249 2.161,-0.601 3.258,-3.661 4.073,-7.374 z"
         id="path218"
         style="stroke-width:0.34422326;stroke-miterlimit:4;stroke-dasharray:none" />
      <path
         d="m 90.551,172.783 c 1.541,1.806 3.48,2.981 6.833,1.907 -0.581,0.894 -0.852,1.858 -2.532,2.5 -3.645,0.533 -4.606,-0.859 -6.232,-1.773 l 2.317,-0.053 c -0.326,-0.762 -0.612,-1.543 -0.386,-2.581 z"
         id="path220"
         style="stroke-width:0.34422326;stroke-miterlimit:4;stroke-dasharray:none" />
    </g>
    <g
       class="h l u w"
       id="g228"
       transform="translate(-57.052,-75.716)"
       style="stroke-width:0.34422326;stroke-miterlimit:4;stroke-dasharray:none">
      <path
         d="m 113.954,172.942 c -0.075,1.822 0.652,2.956 1.194,4.249 -2.161,-0.601 -3.258,-3.661 -4.073,-7.374 z"
         id="path224"
         style="stroke-width:0.34422326;stroke-miterlimit:4;stroke-dasharray:none" />
      <path
         d="m 119.449,172.784 c -1.541,1.806 -3.48,2.981 -6.833,1.907 0.581,0.894 0.852,1.858 2.532,2.5 3.645,0.533 4.606,-0.859 6.232,-1.773 l -2.317,-0.053 c 0.326,-0.762 0.612,-1.543 0.386,-2.581 z"
         id="path226"
         style="stroke-width:0.34422326;stroke-miterlimit:4;stroke-dasharray:none" />
    </g>
    <g
       class="q"
       id="g234"
       transform="translate(-57.052,-75.716)"
       style="stroke-width:0.34422326;stroke-miterlimit:4;stroke-dasharray:none">
      <path
         d="m 105,163.328 a 20.436,17.158 0 0 0 -14.424,5.004 l 5.471,4.61 a 13.109,10.329 0 0 1 8.828,-2.784 13.109,10.329 0 0 1 0.125,0 13.109,10.329 0 0 1 8.953,2.784 l 5.471,-4.61 A 20.436,17.158 0 0 0 105,163.328 Z"
         class="h j l u w"
         id="path230"
         style="stroke-width:0.34422326;stroke-miterlimit:4;stroke-dasharray:none" />
      <path
         d="m 93.524,167.983 0.515,-0.309 0.723,1.203 -0.183,-1.528 0.684,-0.411 0.115,1.566 1.826,1.602 -0.634,0.381 -1.138,-1.099 0.054,0.692 0.467,0.778 -0.515,0.309 z m 4.739,1.055 -0.634,0.256 0.142,0.604 -0.569,0.23 -0.715,-3.718 0.607,-0.245 2.069,3.171 -0.583,0.235 z m -0.418,-0.698 -0.699,-1.158 0.302,1.318 z m 0.562,-2.578 1.086,-0.291 a 0.47,0.47 0 0 1 0.485,0.146 1.32,1.32 0 0 1 0.316,0.597 c 0.057,0.212 0.071,0.404 0.043,0.574 a 0.58,0.58 0 0 1 -0.138,0.294 c 0.151,0.026 0.279,0.106 0.383,0.239 0.104,0.133 0.187,0.315 0.248,0.543 0.05,0.186 0.072,0.359 0.067,0.52 -0.005,0.161 -0.036,0.294 -0.091,0.402 -0.034,0.066 -0.097,0.125 -0.189,0.176 -0.122,0.068 -0.204,0.107 -0.247,0.119 l -1.001,0.268 z m 0.962,1.251 0.252,-0.067 c 0.09,-0.024 0.145,-0.071 0.165,-0.14 0.02,-0.069 0.014,-0.16 -0.016,-0.272 -0.028,-0.104 -0.067,-0.182 -0.118,-0.231 -0.051,-0.049 -0.121,-0.062 -0.209,-0.039 l -0.256,0.069 z m 0.378,1.409 0.296,-0.079 c 0.1,-0.027 0.162,-0.079 0.184,-0.158 0.022,-0.079 0.019,-0.175 -0.012,-0.29 a 0.49,0.49 0 0 0 -0.129,-0.239 c -0.058,-0.053 -0.137,-0.067 -0.239,-0.04 l -0.295,0.079 z m 2.106,-3.406 0.991,-0.122 c 0.216,-0.026 0.389,0.052 0.521,0.235 0.132,0.183 0.22,0.456 0.264,0.817 0.046,0.373 0.023,0.671 -0.068,0.895 a 0.58,0.58 0 0 1 -0.498,0.38 l -0.326,0.04 0.168,1.368 -0.599,0.073 z m 0.792,1.498 0.146,-0.018 c 0.115,-0.014 0.191,-0.062 0.228,-0.144 0.037,-0.082 0.048,-0.183 0.034,-0.301 -0.014,-0.118 -0.046,-0.212 -0.097,-0.287 -0.051,-0.075 -0.131,-0.107 -0.242,-0.093 l -0.17,0.021 z m 2.579,1.42 -0.684,0.012 -0.083,0.615 -0.613,0.011 0.665,-3.727 0.655,-0.012 0.795,3.701 -0.628,0.011 z m -0.14,-0.801 -0.238,-1.331 -0.19,1.339 z m 2.438,0.005 0.498,0.349 a 2.88,2.88 0 0 1 -0.228,0.689 c -0.092,0.182 -0.199,0.316 -0.319,0.402 -0.12,0.086 -0.268,0.122 -0.441,0.106 -0.21,-0.018 -0.377,-0.092 -0.5,-0.22 -0.123,-0.128 -0.22,-0.345 -0.292,-0.648 -0.072,-0.303 -0.086,-0.684 -0.046,-1.143 0.054,-0.613 0.18,-1.076 0.379,-1.39 0.199,-0.314 0.455,-0.458 0.766,-0.43 0.244,0.021 0.427,0.132 0.55,0.333 0.123,0.201 0.201,0.499 0.235,0.896 l -0.548,0.179 c -0.009,-0.114 -0.021,-0.199 -0.037,-0.253 a 0.56,0.56 0 0 0 -0.105,-0.212 c -0.045,-0.052 -0.097,-0.08 -0.157,-0.085 -0.135,-0.012 -0.248,0.083 -0.339,0.286 -0.068,0.15 -0.117,0.391 -0.146,0.723 -0.036,0.411 -0.028,0.695 0.024,0.853 0.052,0.158 0.137,0.242 0.254,0.252 0.117,0.01 0.206,-0.044 0.276,-0.162 0.07,-0.118 0.127,-0.292 0.174,-0.524 z m 1.293,-2.045 0.594,0.094 -0.581,3.669 -0.594,-0.094 z m 1.277,0.218 1.763,0.472 -0.238,0.886 -0.592,-0.159 -0.724,2.702 -0.58,-0.155 0.724,-2.702 -0.591,-0.158 z m 2.22,3.888 -0.643,-0.234 -0.298,0.544 -0.576,-0.21 1.957,-3.241 0.615,0.224 -0.584,3.741 -0.591,-0.215 z m 0.157,-0.798 0.255,-1.328 -0.657,1.182 z m 2.413,-1.456 0.481,0.289 -0.431,2.138 1.058,-1.762 0.485,0.291 -1.913,3.184 -0.485,-0.291 0.426,-2.123 -1.05,1.748 -0.484,-0.291 z"
         fill="#ff0000"
         id="path232"
         style="stroke-width:0.34422326;stroke-miterlimit:4;stroke-dasharray:none" />
    </g>
  </g>
  <defs
     id="defs248">
    <path
       id="B"
       d="M105 76.398c-10.789 0-22.322 7.898-29.907.898-3.46 8.217-8.54 15.262-17.151 19.749 2.338 5.121 2.976 10.809 2.646 16.82v20.033c.356 24.729 11.899 39.639 20.769 43.559 9.292 4.107 17.506 2.519 23.643 9.546 6.137-7.027 14.351-5.439 23.643-9.546 8.87-3.921 20.414-18.83 20.769-43.559v-20.033c-.331-6.011.308-11.699 2.646-16.82-8.611-4.487-13.69-11.532-17.151-19.749-7.585 7-19.118-.898-29.907-.898z" />
    <path
       id="C"
       d="M85.694 145.887a1.41 1.399 0 0 1-1.41 1.399 1.41 1.399 0 0 1-1.41-1.399 1.41 1.399 0 0 1 1.41-1.399 1.41 1.399 0 0 1 1.41 1.399z" />
    <path
       id="D"
       d="M124.309 145.887c0 .371.148.727.412.989a1.42 1.42 0 0 0 .996.41c.373 0 .732-.147.996-.41s.412-.618.412-.989-.148-.727-.412-.989a1.42 1.42 0 0 0-.996-.41c-.373 0-.732.147-.996.41s-.412.618-.412.989z" />
    <path
       id="E"
       d="M74.367 113.366c-.026-.304.513-1.444 1.688-1.167.213-1.493 1.366-1.092 1.564-.72 1.82-1.564 3.07.943 2.284 1.415 1.131.12.956.927.869 1.688.519.776-.068 1.094-.273 1.341l-4.891 1.738c-.124.05-1.241-4.295-1.241-4.295z" />
    <path
       id="F"
       d="M78.897 111.871c.543.125.246.73.307 1.117.066.405.7.238.672.698-.159.409.298.663.241 1.025-.184.297-.61.424-.936.324-.45-.193-.41-.75-.533-1.146-.064-.455-.469-.843-.946-.698-.453.114-.926.175-1.353.375-.347.17-.94.161-1.028-.305-.048-.467.523-.42.829-.491.449-.047.266-.724.741-.739.33.079.604.213.967-.072s.719-.162 1.039-.089z" />
    <path
       id="G"
       d="M74.456 113.513c.747.427.988 1.043 1.217 1.663 1.193-.974 1.562-.815 2.284-1.142.319.892.335 1.632.124 2.259.819-.469 1.639-.417 2.458-.298-1.47 1.186-1.936 3.188-5.338 2.806-1.479-1.763-.8-3.526-.745-5.288z" />
    <path
       id="H"
       d="M133.053 141.925c1.069 1.033 1.697 2.312 1.39 4.111-.287-1.514-.758-2.878-1.39-4.111z" />
    <path
       id="I"
       d="M133.517 130.129c1.247.81 2.107 1.946 2.148 3.77-.571-1.431-1.293-2.681-2.148-3.77z" />
    <path
       id="J"
       d="M95.855 152.465l10.734 26.912 1.361-.543-10.319-25.867z" />
    <path
       id="K"
       d="M99.556 161.748l1.361-.543m-3.038-3.661l1.361-.543" />
  </defs>
</svg>
